<svg xmlns="http://www.w3.org/2000/svg" version="1.1" xmlns:xlink="http://www.w3.org/1999/xlink" xmlns:svgjs="http://svgjs.dev/svgjs" width="1000" height="1000"><g clip-path="url(#SvgjsClipPath1059)"><rect width="1000" height="1000" fill="#ff6b6b"></rect><g transform="matrix(7.8125,0,0,7.8125,0,0)"><svg xmlns="http://www.w3.org/2000/svg" version="1.1" xmlns:xlink="http://www.w3.org/1999/xlink" xmlns:svgjs="http://svgjs.dev/svgjs" width="128" height="128"><svg xmlns="http://www.w3.org/2000/svg" width="128" height="128" fill="none">
  <g clip-path="url(#a)">
    <path fill="#000" d="M63.9395 114c16.0301 0 29.0251-1.732 29.0251-3.869 0-2.137-12.995-3.869-29.0251-3.869-16.0301 0-29.0251 1.732-29.0251 3.869 0 2.137 12.995 3.869 29.0251 3.869Z" opacity=".3"></path>
    <path fill="#74CC72" stroke="#501217" stroke-linecap="round" stroke-linejoin="round" stroke-width="1.25" d="M63.1745 106.309c-17.1074 0-17.1074-7.6608-17.1074-17.1074v-3.2553c0-9.4494 7.6608-17.1074 17.1074-17.1074 9.4494 0 17.1075 7.6607 17.1075 17.1074v3.2553c0 9.4493 0 17.1074-17.1075 17.1074Z"></path>
    <path stroke="#501217" stroke-linecap="round" stroke-linejoin="round" stroke-width="1.25" d="M63.1747 78.1948v12.0911"></path>
    <path fill="#FFDDC1" stroke="#501217" stroke-linecap="round" stroke-linejoin="round" stroke-width="1.25" d="M96.0768 51.2665c-.011.1596-.0193.3192-.0303.4788v.0138c-.0082.1183-.0192.2394-.0275.3577l-.0082.0825v.011a5.7423 5.7423 0 0 1-.0221.2284 6.0362 6.0362 0 0 1-.022.2119c-.011.0991-.0192.1981-.0302.2972-.0055.0468-.011.0963-.0166.1431-.011.1045-.0247.2091-.0385.3137a2.6935 2.6935 0 0 1-.0192.1458l-.0413.3055a19.8699 19.8699 0 0 1-.0606.4017 4.1755 4.1755 0 0 1-.0275.1679c-.0165.1073-.0357.2146-.0523.3219-.0247.1431-.0495.2862-.0742.4265 0 .0055 0 .011-.0028.0165-.0165.0853-.0303.1706-.0495.2532a2.7662 2.7662 0 0 1-.0275.1458c-.0028.0193-.0083.0358-.0111.0551a3.6784 3.6784 0 0 1-.0385.1871c-.0192.1018-.0413.2009-.0633.3027a4.8202 4.8202 0 0 1-.0385.1706 3.2376 3.2376 0 0 1-.0495.2229c-.0248.1073-.0496.2146-.0771.3247 0 .011-.0055.022-.0082.033 0 .0028 0 .0083-.0028.011a12.472 12.472 0 0 1-.077.3109.7647.7647 0 0 0-.0083.0358 1.4947 1.4947 0 0 1-.0275.1073 9.5186 9.5186 0 0 1-.0688.2697c0 .0055-.0027.0083-.0027.0138-.0248.0935-.0496.1871-.0771.2806-.0495.1789-.099.355-.1513.5339-.0138.0412-.0248.0853-.0386.1293-.033.1073-.066.2174-.099.3247l-.0165.0578c-.0275.088-.0551.1761-.0826.2614a4.5979 4.5979 0 0 1-.0605.1816l-.0661.1981a8.2748 8.2748 0 0 1-.0963.2862c-.0165.0523-.0357.1046-.0523.1541a8.011 8.011 0 0 1-.0853.2367c-.022.066-.0467.1293-.0687.1953-.0386.1018-.0771.2064-.1156.3082 0 .0055-.0028.0083-.0055.0138-.0551.1458-.1101.2917-.1679.4348-.0027.011-.0082.0192-.011.0275-.0605.1541-.1238.3054-.1871.4595a5.9387 5.9387 0 0 1-.0853.1981c-.0413.0991-.0826.1982-.1266.2972l-.1568.355c-.0028.0055-.0055.0137-.0083.0193a3.251 3.251 0 0 1-.0798.1706c-.0358.077-.0688.154-.1073.2283a3.7294 3.7294 0 0 1-.0881.1844 5.181 5.181 0 0 1-.0853.1789l-.132.2724a.3446.3446 0 0 1-.0276.055c-.055.1101-.1073.2174-.1623.3247-.0633.1266-.1293.2504-.1954.377-.011.022-.0247.044-.0358.0661a32.2427 32.2427 0 0 1-5.0026 6.9756 32.307 32.307 0 0 1-6.5243 5.33c-4.9146 3.0407-10.7124 4.799-16.9175 4.799s-12.003-1.7556-16.9176-4.799a32.3668 32.3668 0 0 1-6.6509-5.4649 32.2742 32.2742 0 0 1-4.854-6.7995c-.0193-.0357-.0385-.0688-.055-.1045-2.0913-3.9542-3.3819-8.3955-3.6571-13.112 1.7254-1.3043 3.957-2.471 6.8133-3.4451 5.663-1.9317 13.7861-3.1122 25.324-3.1122 11.538 0 19.661 1.1805 25.324 3.1122.0633.022.1239.0413.1844.0633.0661.022.1321.044.1981.0688l.322.1156c.0853.0302.1706.0632.2559.0963.0936.0357.1871.0688.2807.1073.0935.0358.1871.0743.2807.1101l.1816.0743.1816.0742c.088.0358.1733.0716.2586.1074.1211.0522.2422.1045.3605.1568.2009.0881.399.1789.5944.2697.1018.0495.2036.0963.3054.1458.0936.0468.1899.0936.2807.1404.0826.0412.1651.0825.2449.1265.0495.0248.0963.0496.1431.0743l.1403.0743a4.482 4.482 0 0 1 .1569.0853c.0495.0276.1018.0551.1513.0826.0688.0385.1348.0743.2009.1128 0 0 .0055.0028.0082.0055.0661.0385.1321.0743.1954.1128.0633.0386.1294.0743.1926.1128l.0165.0083c.0633.0385.1239.0743.1844.1128.0633.0385.1294.0798.1926.1183.0633.0386.1266.0798.1872.1184.1238.0798.2476.1596.3659.2421 0 0 .0028 0 .0055.0028.0413.0275.0826.055.1211.0825.1293.0881.2559.1789.3797.2669.0826.0606.1624.1211.245.1817l-.0028-.0083Z"></path>
    <path fill="#fff" stroke="#501217" stroke-linecap="round" stroke-linejoin="round" stroke-width="1.25" d="M96.1346 49.3513a33.902 33.902 0 0 1-.055 1.9152c-5.1485-3.8882-14.7795-6.5574-32.1373-6.5574-11.5379 0-19.661 1.1805-25.324 3.1122-2.8563.9741-5.0879 2.1409-6.8133 3.4452-.0385-.6329-.055-1.2713-.055-1.9152C31.75 31.5697 36.9507 14 63.9451 14c26.9943 0 32.195 17.5697 32.195 35.3513h-.0055Z"></path>
    <path fill="#EEE" d="M95.5016 49.3512c0 .2367-.0027.4761-.0082.7127-2.7187-1.7858-6.329-3.1837-10.7592-4.1633-5.5145-1.219-12.5093-1.8354-20.7865-1.8354-10.8252 0-19.4133 1.0594-25.5304 3.1452-2.3197.7925-4.3367 1.7473-6.0152 2.8508a30.7981 30.7981 0 0 1-.0083-.7127c0-1.8904.0523-3.8552.2009-5.8529.3687-.1624.7484-.3247 1.1364-.4788 6.0043-2.3967 14.5263-3.8909 25.3378-4.4413 3.3764-.1706 8.8358.2532 14.3007.9301 10.1318 1.2548 17.3633-9.7328 12.0965-18.4778-.0413-.0687-.0825-.1375-.1238-.2036 8.7725 7.0417 10.1593 18.8217 10.1593 28.5243v.0027Z"></path>
    <path fill="#000" fill-opacity=".1" d="M95.4246 51.5744a19.2993 19.2993 0 0 1-.0083.1101v.0303c-.0082.1155-.0192.2339-.0275.3494l-.0082.0688v.0275a4.9605 4.9605 0 0 1-.0193.2119v.011c-.0055.0633-.011.1294-.0193.2009-.011.0936-.0192.1899-.0302.2834v.0165c-.0028.0413-.0083.0826-.0138.1321-.011.1018-.0247.2009-.0385.3082l-.0165.1321v.011c-.011.0991-.0248.1981-.0385.2972l-.0165.1073a12.0586 12.0586 0 0 1-.0578-.0413c-.0083-.0055-.0138-.011-.022-.0165-.0028-.0027-.0083-.0055-.0138-.011a1.3604 1.3604 0 0 1-.0771-.055l-.0165-.011s-.0082-.0055-.0137-.0083c-.0165-.0137-.0358-.0247-.0551-.0358a23.0333 23.0333 0 0 0-.2724-.1788.1784.1784 0 0 0-.0303-.0193c-.0632-.0413-.121-.077-.1816-.1155l-.0247-.0166-.0413-.0247c-.0385-.0248-.0743-.0496-.1128-.0716l-.0248-.0137c-.0137-.0083-.0275-.0165-.0385-.0248-.0358-.022-.0743-.044-.1101-.066a.2375.2375 0 0 0-.0275-.0165l-.1816-.1074c-.0688-.0412-.1321-.077-.1926-.1128l-.0165-.0082c-.0633-.0358-.1239-.0688-.1872-.1046l-.1486-.0826c-.033-.0165-.066-.0357-.1018-.055l-.0522-.0275a2.054 2.054 0 0 0-.1046-.055l-.0303-.0165c-.0495-.0248-.0908-.0496-.1376-.0716l-.0633-.0303c-.0577-.0302-.1183-.0605-.1788-.0908-.0881-.044-.1761-.088-.2642-.1293l-.0137-.0055c-.0964-.0495-.1954-.0936-.2972-.1431a22.8031 22.8031 0 0 0-.5779-.2614c-.1156-.0523-.2339-.1018-.3522-.1513l-.1046-.0441c-.0495-.0192-.0963-.0412-.1458-.0605a5.071 5.071 0 0 1-.1183-.0495l-.0606-.0248c-.055-.022-.1128-.044-.1706-.0688l-.0633-.0248a17.5726 17.5726 0 0 0-.2118-.0825c-.0028 0-.0056-.0028-.0111-.0028a10.6001 10.6001 0 0 0-.2641-.1018c-.0055 0-.0083-.0027-.0138-.0055-.0798-.0303-.1623-.0605-.2449-.0908a54.0082 54.0082 0 0 1-.3164-.1128c-.0661-.0248-.1266-.044-.1872-.0661a4.9248 4.9248 0 0 0-.1816-.0632c-.3522-.1184-.7099-.2367-1.0786-.3468a22.1113 22.1113 0 0 0-.5036-.1513.2724.2724 0 0 1-.044-.0138c-.1183-.033-.2367-.0688-.355-.1018-.1266-.0357-.2504-.0715-.3797-.1045a6.9734 6.9734 0 0 0-.2587-.0688c-.0275-.0083-.0523-.0138-.0798-.022a47.53 47.53 0 0 0-.3247-.0826c-.1073-.0275-.2174-.055-.3275-.0825-.4127-.1046-.8337-.2009-1.263-.2972a248.683 248.683 0 0 0-.6494-.1404c-.0578-.011-.1128-.0247-.1706-.0357-.033-.0083-.066-.0138-.1018-.0221-.055-.011-.1101-.022-.1679-.033-.0165-.0027-.0357-.0055-.0522-.011-.0798-.0165-.1596-.0303-.2367-.0468-.0358-.0082-.0743-.0137-.1101-.022-.0908-.0165-.1816-.0358-.2724-.0523-.1458-.0275-.2889-.055-.4348-.0798-.0165-.0027-.0302-.0055-.0467-.0082l-.0413-.0083c-.0798-.0137-.1624-.0275-.2422-.0412-.0412-.0083-.0825-.0138-.1238-.0221-.0935-.0165-.1871-.0302-.2834-.0495-.033-.0055-.0633-.011-.0963-.0165-.0826-.0138-.1679-.0275-.2504-.0413-.0826-.0137-.1679-.0275-.2532-.0413-.0963-.0137-.1954-.0302-.2917-.044-.0385-.0055-.0743-.011-.1128-.0165a3.7159 3.7159 0 0 1-.1734-.0275h-.0082c-.1679-.0248-.3385-.0495-.5091-.0743-.1733-.0248-.3522-.0495-.5283-.0743a81.7338 81.7338 0 0 0-.9163-.1183c-.0881-.011-.1734-.022-.2614-.033-.0496-.0056-.0963-.0111-.1459-.0166h-.0165c-.1871-.022-.3797-.044-.5696-.066a.21.21 0 0 1-.0413-.0055h-.0165a2.2792 2.2792 0 0 0-.1348-.0138c-.0303-.0027-.0605-.0082-.0908-.011-.0358-.0027-.0688-.0082-.1046-.011a96.4048 96.4048 0 0 0-2.3967-.2256 102.8177 102.8177 0 0 0-2.3995-.1679c-.1871-.011-.3743-.022-.5641-.033-.1183-.0082-.2394-.0137-.3577-.0193-.2752-.0137-.5504-.0275-.8283-.0385a49.5857 49.5857 0 0 0-.6467-.0275c-.1816-.0082-.3659-.0138-.5503-.022l-.465-.0165a152.7076 152.7076 0 0 0-4.8431-.0771c-10.6821 0-19.1326 1.0347-25.1176 3.0765a27.7282 27.7282 0 0 0-1.5988.5943 3.834 3.834 0 0 0-.2146.0881c-.1486.0633-.2972.1238-.443.1871a4.5694 4.5694 0 0 0-.2036.088 26.3934 26.3934 0 0 0-.6219.2835 27.1747 27.1747 0 0 0-.4045.1953c-.1321.0661-.2642.1321-.3935.1982a43.2172 43.2172 0 0 0-.3578.1898c-.1981.1074-.3934.2147-.5833.3275-.0468.0275-.0908.0523-.1376.0798a19.4433 19.4433 0 0 0-.4018.2449 9.0906 9.0906 0 0 0-.1678.1073c-.0578.0385-.1183.0771-.1761.1156-.0551.0358-.1101.0715-.1624.1073-.055.0358-.11.0743-.1651.1128-.0275.0165-.0523.0358-.0798.0551-.11-.7595-.1898-1.5245-.2449-2.2977.0523-.0386.1073-.0771.1596-.1156a3.417 3.417 0 0 1 .1624-.1128c.055-.0385.11-.0771.1651-.1128.0523-.0358.1073-.0743.1623-.1074.0578-.0385.1184-.077.1761-.1155.0551-.0358.1101-.0716.1679-.1073.1321-.0826.2669-.1651.4017-.2449a2.2126 2.2126 0 0 1 .1376-.0798c.1899-.1101.3853-.2202.5834-.3275a41.639 41.639 0 0 1 .3577-.1899c.1293-.066.2614-.1348.3935-.1981a13.946 13.946 0 0 1 .4045-.1954c.2036-.0963.41-.1926.6219-.2834a4.4555 4.4555 0 0 1 .2036-.088c.1459-.0633.2945-.1266.4431-.1872a7.0252 7.0252 0 0 0 .2146-.088 34.7484 34.7484 0 0 1 1.5987-.5944c5.985-2.0418 14.4355-3.0764 25.1177-3.0764 1.6675 0 3.2828.0248 4.843.077.1569.0055.3109.0111.465.0166.1844.0082.3688.0137.5504.022.2174.0082.432.0165.6466.0275.278.011.5531.0247.8283.0385.1183.0083.2394.0138.3577.0193.1899.011.377.022.5641.033.8173.0468 1.618.1046 2.3995.1678.8173.0661 1.618.1431 2.3968.2257.0357.0027.0715.0082.1045.011.0303.0027.0606.0082.0908.011.0441.0055.0908.011.1349.0138h.0165a.21.21 0 0 1 .0413.0055c.1926.022.3824.0412.5696.066h.0165c.0495.0055.099.011.1458.0165.0881.011.1734.022.2614.033.3082.0386.6164.0771.9163.1184.1789.0247.355.0467.5284.0743.1706.0247.3412.0495.509.0742h.0083c.0578.0083.1156.0166.1734.0276.0385.0055.0743.011.1128.0165.0963.0137.1953.0302.2917.044.0825.0138.1678.0275.2531.0413.0826.0137.1679.0275.2504.0413.0303.0055.0633.011.0963.0165.0936.0165.1872.033.2835.0495.0412.0083.0825.0138.1238.022.0798.0138.1623.0275.2421.0413l.0413.0082c.0165.0028.0303.0055.0468.0083.1458.0248.2917.0523.4348.0798.0908.0165.1816.0358.2724.0523.0358.0082.0743.0137.1101.022.0798.0138.1596.0303.2366.0468.0165.0027.0358.0082.0523.011.055.011.1101.022.1678.033.0331.0083.0661.0138.1019.022.0577.011.1128.0248.1706.0358.2201.044.4347.0908.6494.1403.4292.0936.8502.1926 1.263.2972.1101.0275.2201.055.3275.0826.1073.0275.2173.055.3247.0825.0275.0083.0522.0138.0798.022.088.022.1733.0441.2586.0688.1266.033.2532.0688.3798.1046.1183.033.2366.0688.3549.1018.0138.0055.0303.0083.0441.0138.1706.0495.3384.1018.5035.1513.3687.1128.7292.2284 1.0787.3495.0578.0192.1156.0385.1816.0633.0605.022.1211.0412.1871.066.1073.0385.2147.077.3165.1128.0825.0303.1651.0606.2449.0908.0027 0 .0082.0028.0137.0055.0881.033.1761.0661.2642.1018.0027 0 .0082 0 .011.0028.0715.0275.1403.055.2119.0825l.0633.0248c.0578.022.1155.044.1706.0688l.0605.0248c.0385.0165.0771.0302.1183.0495.0496.0193.0991.0413.1459.0605l.1045.0441c.1184.0495.2367.1018.3523.1513.1953.0853.3907.1734.5778.2614.0991.0468.1981.0936.2972.1431l.0138.0055c.088.044.1788.0881.2641.1293.0606.0303.1184.0606.1789.0909l.0633.0302c.044.022.088.0468.1376.0716l.0302.0165c.0331.0165.0633.033.1046.055l.0523.0275.1018.0551.1486.0825c.0633.0358.1266.0688.1871.1046l.0165.0082c.0633.0358.1238.0716.1926.1129l.1817.1073a.2375.2375 0 0 0 .0275.0165c.0357.022.0743.044.11.066.0138.0083.0248.0165.0386.0248l.0247.0137c.0386.0221.0771.0468.1128.0716l.0413.0248.0248.0165c.0605.0385.1183.0743.1816.1155.011.0055.0193.0138.0303.0193.0908.0605.1816.1183.2724.1789.0193.011.0385.0247.055.0357.0055.0028.0083.0055.0138.0083l.0165.011c.0248.0193.0523.0358.077.055a.0588.0588 0 0 0 .0138.011.1498.1498 0 0 1 .022.0165c.0385.0248.0771.0523.1156.0798a.103.103 0 0 1 .0275.0193c.0275.0193.055.0385.0798.0578.0275.0193.0523.0385.0798.0578l-.0055-.0028Z"></path>
    <path fill="#000" fill-opacity=".1" d="M95.4137 51.5746a.7144.7144 0 0 1-.0083.1101v.0303c-.011.1155-.0193.2339-.0275.3494l-.0055.0688v.0275a4.9605 4.9605 0 0 1-.0193.2119v.011c-.0055.0633-.011.1294-.022.2009a9.3565 9.3565 0 0 1-.0303.2834v.0165c-.0055.0413-.0082.0826-.0137.1321-.011.1018-.0248.2009-.0385.3082l-.0166.1321v.011c-.011.0991-.0275.1981-.0385.2972-.0165.1321-.0385.2614-.0578.3907l-.0082.0551c-.0055.033-.011.0688-.0165.1018v.011c-.0165.1018-.033.2009-.0496.3027v.0137c-.0247.1404-.0522.278-.077.4183V55.0831c-.0165.0798-.0303.1568-.0468.2339v.0137c-.0082.0413-.0137.0798-.0247.1183-.0028.0138-.0056.0248-.0083.0386l-.0055.0247s0 .0083-.0028.0138c-.011.0578-.022.1183-.0357.1844-.0193.0963-.0413.1926-.0606.2916-.011.0413-.0165.0853-.0275.1294l-.0082.033v.0137c-.0165.0661-.0303.1321-.0496.2064a45.567 45.567 0 0 1-.0743.311.0786.0786 0 0 1-.0055.0247c0 .0055 0 .011-.0027.0138 0 .0055-.0028.0138-.0028.0193-.0247.0963-.0468.1953-.0743.2971l-.0082.0413-.0248.0908c0 .0055-.0027.011-.0027.0165-.0193.0798-.0413.1596-.0633.2394-.0028.0138-.0083.0276-.011.0441-.0221.0853-.0441.1706-.0688.2531 0 .0028 0 .0083-.0028.011a23.2745 23.2745 0 0 1-.1458.5146 2.4337 2.4337 0 0 0-.0385.1348 10.087 10.087 0 0 1-.0964.311l-.022.066c-.0247.0826-.0523.1624-.077.2449a.0209.0209 0 0 1-.0055.011 3.641 3.641 0 0 1-.0523.1624c0 .0055-.0055.011-.0055.0165-.0193.0605-.0385.1211-.0633.1899-.0303.088-.0578.1788-.0908.2669l-.0083.0247a2.4044 2.4044 0 0 1-.044.1321c0 .0028-.0027.011-.0027.0138-.0276.0715-.0523.1458-.0771.2174 0 .0055-.0055.011-.0055.0137a7.687 7.687 0 0 1-.0688.1844c-.0358.0963-.0688.1899-.1073.2862 0 .0055-.0055.0137-.0083.0165a.0208.0208 0 0 1-.0055.011c-.055.1431-.11.2862-.1651.4265-.0055.0138-.011.0248-.0137.0385-.0578.1459-.1183.2945-.1761.4375-.0275.0633-.0551.1266-.0853.1982a8.336 8.336 0 0 1-.1239.2889c-.0495.1156-.099.2284-.1513.344-.0028.0082-.0083.0137-.011.022-.0248.0523-.0468.1045-.0716.1568a.0463.0463 0 0 1-.0082.0165c-.0303.0716-.0661.1431-.0991.2147a.0208.0208 0 0 1-.0055.011 9.9826 9.9826 0 0 1-.0853.1816c-.0247.055-.0523.1073-.077.1623 0 .0028-.0028.0055-.0055.011a11.2757 11.2757 0 0 1-.1294.2642c0 .0028-.0027.0055-.0055.011l-.0082.0165s-.011.0165-.0165.0275a17.2602 17.2602 0 0 1-.1596.3192c-.0606.1211-.1239.2394-.1871.3605 0 0-.0028.0083-.0055.011l-.0331.0633c-1.318 2.4821-2.9691 4.7825-4.9035 6.8353-1.896 2.0142-4.0478 3.7726-6.395 5.2227-4.9696 3.0764-10.7014 4.7027-16.5791 4.7027-5.8777 0-11.6095-1.6263-16.5818-4.7027a31.6586 31.6586 0 0 1-6.5188-5.3576 31.5861 31.5861 0 0 1-4.7605-6.6701l-.0523-.0991c-2.061-3.8964-3.258-8.101-3.5635-12.501.0523-.0385.1074-.0771.1596-.1156.0496-.0358.0991-.0688.1486-.1046.5366 3.4067 1.6263 6.6757 3.2526 9.7521l.0522.0991a31.5861 31.5861 0 0 0 4.7605 6.6701 31.7329 31.7329 0 0 0 6.5188 5.3576c4.9724 3.0764 10.7042 4.7027 16.5819 4.7027 5.8776 0 11.6094-1.6263 16.579-4.7027 2.3473-1.4501 4.4991-3.2085 6.395-5.2227 1.9345-2.0528 3.5855-4.3532 4.9036-6.8353l.033-.0633s.0055-.0082.0055-.011c.0633-.1211.1266-.2394.1871-.3605.0551-.1073.1073-.2118.1596-.3192.0055-.011.011-.0192.0165-.0275l.0083-.0165s.0027-.0082.0055-.011a12.112 12.112 0 0 1 .1293-.2642.0216.0216 0 0 1 .0055-.011 4.4131 4.4131 0 0 0 .0771-.1623c.0302-.0633.0578-.1211.0853-.1816 0-.0028.0027-.0055.0055-.011l.099-.2147a.0466.0466 0 0 1 .0083-.0165 3.8861 3.8861 0 0 0 .0715-.1568c.0028-.0083.0083-.0138.011-.022.0523-.1156.1019-.2284.1514-.344.044-.0991.0853-.1954.1238-.2889.0303-.0716.0606-.1349.0853-.1982.0606-.1458.1183-.2916.1761-.4375.0055-.0137.0083-.0247.0138-.0385a68.974 68.974 0 0 0 .1651-.4265.0202.0202 0 0 1 .0055-.011c0-.0028.0055-.011.0082-.0165.0358-.0963.0716-.1899.1074-.2862.0247-.0633.0467-.1238.0688-.1844 0-.0055.0027-.011.0055-.0137.0247-.0716.0522-.1459.077-.2174 0-.0028.0028-.011.0028-.0138.0165-.044.0302-.088.044-.1321l.0082-.0247c.0303-.0881.0606-.1789.0908-.2669a4.963 4.963 0 0 0 .0633-.1899c0-.0055.0028-.011.0055-.0165.0165-.0523.0358-.1073.0523-.1624a.0216.0216 0 0 1 .0055-.011c.0248-.0825.0523-.1623.0771-.2449l.022-.066c.0303-.1018.0633-.2064.0963-.311.0138-.044.0248-.0908.0385-.1348.0496-.1679.0991-.3412.1459-.5146 0-.0027 0-.0055.0027-.011.0248-.0825.0468-.1678.0688-.2531.0028-.0138.0083-.0276.011-.0441.022-.0798.0413-.1596.0633-.2394 0-.0055 0-.011.0028-.0165.0082-.0302.0137-.0605.0247-.0908l.0083-.0413c.0275-.1018.0495-.1981.0743-.2971 0-.0028.0027-.0138.0027-.0193 0-.0028.0028-.0083.0028-.0138.0027-.0082.0027-.0165.0055-.0247.0248-.1046.0495-.2064.0743-.311.0165-.0743.033-.1403.044-.2064v-.0137l.011-.033a2.1304 2.1304 0 0 0 .0275-.1294c.022-.099.0413-.1953.0606-.2916.0137-.0661.0247-.1266.0357-.1844 0-.0055 0-.0083.0028-.0138l.0055-.0247a.0974.0974 0 0 1 .0082-.0386c.0083-.0385.0166-.077.0248-.1183v-.0137a5.8085 5.8085 0 0 0 .044-.2339V52.0892c.0248-.1403.0523-.2779.0743-.4183v-.0137c.0193-.1018.0358-.2009.0523-.3027 0 0 .0083 0 .011.0055.0386.0248.0771.0523.1156.0798.0083.0055.0193.011.0275.0193a1.97 1.97 0 0 1 .0798.0577c.0275.0193.0551.0386.0798.0578h-.0027Z"></path>
    <path fill="#504A58" stroke="#501217" stroke-linecap="round" stroke-linejoin="round" stroke-width="1.25" d="M92.4198 64.3784c2.0913-3.9543 3.3818-8.3955 3.657-13.112-1.7253-1.3043-3.9569-2.471-6.8132-3.4451.2999 3.2855.6274 8.1891.0743 9.6337-.5916 1.5493 1.2162 5.1182 3.0819 6.9234ZM35.4593 64.3784c-2.0913-3.9543-3.3819-8.3955-3.6571-13.112 1.7254-1.3043 3.957-2.471 6.8133-3.4451-.2999 3.2855-.6274 8.1891-.0743 9.6337.5916 1.5493-1.2163 5.1182-3.0819 6.9234Z"></path>
    <path fill="#FFDDC1" stroke="#501217" stroke-linecap="round" stroke-linejoin="round" stroke-width="1.25" d="M40.3684 71.2826c-.1156.5916-.388 1.0979-.8228 1.4611-1.4199 1.186-4.034.4018-5.8391-1.7556-1.8051-2.1573-2.1161-4.8705-.6962-6.0565.6494-.5421 1.5465-.6742 2.504-.4485 1.3209 2.4793 2.9581 4.7632 4.8541 6.7995ZM94.013 70.9883c-1.8051 2.1573-4.4193 2.9443-5.8392 1.7556-.4017-.3358-.6659-.7925-.7925-1.3264a32.2417 32.2417 0 0 0 5.0027-6.9756c.8888-.1678 1.717-.022 2.3252.4871 1.4198 1.186 1.1089 3.8992-.6962 6.0565v.0028Z"></path>
    <path fill="#74CC72" stroke="#501217" stroke-linecap="round" stroke-linejoin="round" stroke-width="1.25" d="M41.8763 94.1107c-2.0913-1.1832-2.738-3.8964-1.4034-5.8941l3.5415-5.3026c.952-1.4226 2.7764-1.9757 4.3559-1.3153 1.8519.7732 2.7077 2.9168 1.896 4.7522l-2.6417 5.9822c-1.0456 2.1381-3.6763 2.9526-5.7483 1.7804v-.0028ZM83.606 94.1107c2.0913-1.1832 2.738-3.8964 1.4034-5.8941l-3.5415-5.3026c-.9521-1.4226-2.7765-1.9757-4.3559-1.3153-1.8519.7732-2.7077 2.9168-1.896 4.7522l2.6417 5.9822c1.0456 2.1381 3.6763 2.9526 5.7483 1.7804v-.0028Z"></path>
    <path fill="#fff" d="M49.9223 85.2007a2.9642 2.9642 0 0 0-.1953-.7897c-.2972-.7402-.8641-1.3153-1.5988-1.6235-1.2933-.5394-2.7985-.0853-3.5772 1.0786l-3.5415 5.3053c-.3329.4981-.5283 1.054-.5778 1.6318-.0688-.787.1293-1.563.5778-2.2344l3.5415-5.3053c.7787-1.1667 2.2839-1.6207 3.5772-1.0787.7347.3055 1.3016.8833 1.5988 1.6236.1788.4485.2449.9245.1953 1.3923Z"></path>
    <path fill="#FFDDC1" d="M76.2728 83.6736c-1.53 0-2.427-.9797-3.0187-1.6291-.2118-.2311-.4512-.4925-.5888-.5531-1.0072-.4375-2.017-1.9289-2.1381-2.8425-.0771-.5751.1816-.8778.3412-1.0043.2367-.1872.5283-.2835.8696-.2835.154 0 .3136.022.4732.0551-.1128-.41-.1513-.82-.022-1.1447.1211-.3055.3633-.5256.6852-.6137a1.1747 1.1747 0 0 1 .3275-.044c.2559 0 .5035.0825.7347.2146.0165-.2862.0743-.5503.1953-.7705.1706-.3109.4513-.5228.7925-.5943a1.0549 1.0549 0 0 1 .2092-.022c.5145 0 .9878.3522 1.5052 1.1282.2394-.6935.6741-1.2933 1.4529-1.3071h.022c.3302 0 .6356.1431.8613.4017.3962.4568.509 1.3044.5145 2.0996a1.6753 1.6753 0 0 1 .6604-.1348c.3688 0 .7265.1238 1.0649.3687.278.2009.4623.5503.5036.9576.0413.399-.0247 1.2108-.908 2.1656-.2697.2917-.3495.5558-.4513.8888-.2669.8695-.6054 1.5905-2.3115 2.2839-.6274.2559-1.2245.3853-1.7748.3853v-.0055Z"></path>
    <path fill="#501217" d="M78.1136 74.901c1.12 0 .6164 3.4589.6164 3.4589s.5724-1.0952 1.4171-1.0952c.2147 0 .4458.0715.6907.2476.322.2312.4788 1.1117-.5008 2.1684-1.0209 1.1034-.0936 2.0197-2.5343 3.0131-.5889.2394-1.0924.3385-1.5355.3385-1.8739 0-2.5646-1.7886-3.3516-2.1299-.9741-.421-2.1435-2.3664-1.651-2.7599.1293-.1018.2917-.1431.4706-.1431.7429 0 1.7665.7044 1.7665.7044s-1.3428-2.1848-.4595-2.4297a.5773.5773 0 0 1 .1541-.0221c.8503 0 1.8189 1.7942 1.8189 1.7942s-1.0347-2.7352.0385-2.9581a.3484.3484 0 0 1 .0771-.0083c.8035 0 1.8519 2.5068 1.8519 2.5068s-.011-2.6664 1.1199-2.6856h.011Zm0-1.2823h-.0358c-.6108.011-1.1557.2944-1.5547.8007-.3825-.366-.842-.6191-1.3951-.6191-.1128 0-.2284.011-.3384.0357-.5284.1101-.9631.4348-1.2246.9136a2.4037 2.4037 0 0 0-.1128.2394 1.9988 1.9988 0 0 0-.2559-.0165c-.1706 0-.3384.022-.498.0688-.5119.1431-.9164.5063-1.109.9989-.0853.2146-.1266.4457-.1293.6989-.3743.044-.7155.1844-.9961.4073-.4541.3632-.6632.941-.5779 1.5904.1458 1.0952 1.2603 2.7793 2.4876 3.3324.0853.0633.2669.2641.4045.4127.6273.688 1.6785 1.8382 3.4919 1.8382.6329 0 1.3125-.1459 2.017-.432.908-.3688 1.5354-.7788 1.973-1.2906.4402-.5118.5971-1.0264.7099-1.4006.0991-.3247.1458-.4623.3109-.6412 1.054-1.1392 1.1255-2.1601 1.076-2.6664-.0606-.5916-.3385-1.1062-.7678-1.4144-.4512-.3247-.9355-.4898-1.4419-.4898h-.0605c-.077-.7787-.2834-1.3428-.6301-1.7418-.3468-.4018-.8256-.6219-1.3456-.6219l.0027-.0027Z"></path>
    <path fill="#FFDDC1" stroke="#501217" stroke-linecap="round" stroke-linejoin="round" stroke-width="1.25" d="M60.9237 110.402c2.2618-1.114 3.6223-2.978 3.0389-4.162-.5835-1.185-2.8901-1.242-5.1519-.129-2.2618 1.114-3.6224 2.978-3.0389 4.163.5835 1.184 2.8901 1.242 5.1519.128Z"></path>
    <path fill="#fff" stroke="#501217" stroke-linecap="round" stroke-linejoin="round" stroke-width="1.25" d="M61.1025 105.109s.0496 3.798 1.5603 4.455c0 0 24.3416 2.865 23.0428-8.687-1.1832-10.5087-24.6031 4.235-24.6031 4.235v-.003Z"></path>
    <path fill="#AAA" d="M83.529 105.588c-4.9008 4.876-19.2757 3.492-20.6791 3.343-.6604-.396-1.0209-2.168-1.0925-3.478.0606-.038.1294-.08.2092-.126.1816.864.476 1.634.8833 1.879 1.4034.149 15.7811 1.533 20.6791-3.343.8613-.859 1.3676-1.85 1.53-3 .0027.025.0082.053.011.077.2119 1.885-.2917 3.404-1.541 4.648Z"></path>
    <path stroke="#501217" stroke-linecap="round" stroke-linejoin="round" stroke-width="1.25" d="M49.0803 63.3769c0-2.3995 1.9455-4.3422 4.3422-4.3422 2.3968 0 4.3422 1.9454 4.3422 4.3422M69.4595 63.3769c0-2.3995 1.9454-4.3422 4.3422-4.3422 2.3967 0 4.3422 1.9454 4.3422 4.3422M64.7101 70.6411c0 .8475-.688 1.5355-1.5355 1.5355-.8475 0-1.5354-.688-1.5354-1.5355"></path>
    <path fill="#FFDDC1" stroke="#501217" stroke-linecap="round" stroke-linejoin="round" stroke-width="1.25" d="M71.2763 109.841c.5835-1.185-.7771-3.048-3.0389-4.162-2.2618-1.114-4.5684-1.057-5.1519.128-.5834 1.185.7771 3.048 3.0389 4.162 2.2618 1.114 4.5684 1.057 5.1519-.128Z"></path>
    <path fill="#fff" stroke="#501217" stroke-linecap="round" stroke-linejoin="round" stroke-width="1.25" d="M65.9456 104.68s-.0495 3.797-1.5602 4.455c0 0-24.3417 2.865-23.0429-8.687 1.1833-10.5089 24.6031 4.235 24.6031 4.235v-.003Z"></path>
    <path fill="#AAA" d="M65.2906 105.024c-.0715 1.313-.432 3.085-1.0924 3.481-1.4034.149-15.7811 1.533-20.6791-3.343-1.2493-1.244-1.7529-2.763-1.541-4.648.0028-.025.0055-.052.011-.077.1624 1.15.6687 2.141 1.53 2.999 4.9008 4.876 19.2757 3.492 20.6791 3.344.4073-.245.7017-1.018.8833-1.882.0771.046.1459.09.2091.126Z"></path>
    <path fill="#FFDDC1" d="M49.1628 83.6737c-.5504 0-1.1475-.1293-1.7749-.3852-1.706-.6935-2.0445-1.4144-2.3114-2.284-.1018-.3329-.1816-.5971-.4513-.8888-.8833-.9548-.9466-1.7666-.9081-2.1656.0413-.4072.2257-.7567.5036-.9576.3385-.2449.6962-.3687 1.0649-.3687.2394 0 .4623.0523.6604.1348.0055-.7952.1184-1.6427.5146-2.0995.2229-.2587.5283-.4018.8613-.4018h.022c.7787.0165 1.2135.6164 1.4529 1.3098.5173-.7759.9934-1.1282 1.5052-1.1282.0688 0 .1403.0083.2091.022.3412.0716.6247.2835.7925.5944.1211.2202.1789.4843.1954.7705.2311-.1321.4788-.2146.7347-.2146.1101 0 .2201.0137.3275.044.3219.0908.5641.3082.6851.6136.1266.3247.0908.7347-.022 1.1447.1596-.0357.3192-.055.4733-.055.3412 0 .6357.0963.8696.2834.1596.1294.4182.4293.3412 1.0044-.1211.9136-1.1337 2.405-2.1381 2.8425-.1376.0606-.377.322-.5889.5531-.5916.6494-1.4887 1.629-3.0186 1.629v.0028Z"></path>
    <path fill="#501217" d="M47.3219 74.901h.011c1.1337.022 1.12 2.6856 1.12 2.6856s1.0456-2.5068 1.8519-2.5068c.0247 0 .0523 0 .077.0083 1.0732.2256.0385 2.9581.0385 2.9581s.9687-1.7942 1.8189-1.7942c.0523 0 .1046.0055.1541.0221.8833.2476-.4595 2.4297-.4595 2.4297s1.0264-.7044 1.7666-.7044c.1789 0 .3412.0413.4705.1431.4898.3935-.6796 2.3362-1.651 2.7599-.787.3413-1.4777 2.1299-3.3516 2.1299-.4403 0-.9466-.0991-1.5354-.3385-2.4408-.9934-1.5135-1.9097-2.5344-3.0131-.9768-1.0567-.8227-1.9372-.5008-2.1684.2449-.1761.4761-.2476.6907-.2476.8448 0 1.4171 1.0952 1.4171 1.0952s-.5008-3.4589.6164-3.4589Zm0-1.2823c-.5201 0-.9989.2201-1.3456.6218-.3467.399-.5503.9631-.6301 1.7446h-.0606c-.5063 0-.9906.1651-1.4418.4898-.4266.3082-.7072.8228-.7678 1.4144-.0495.5063.022 1.5245 1.0759 2.6664.1624.1761.2092.3165.311.6412.1156.3742.2724.886.7099 1.4006.4376.5118 1.0649.9218 1.973 1.2906.7044.2861 1.3841.432 2.017.432 1.8134 0 2.8646-1.1502 3.4919-1.8382.1349-.1486.3165-.3467.4045-.4127 1.2273-.5531 2.3418-2.2344 2.4876-3.3324.0853-.6494-.1238-1.2272-.5779-1.5904-.2806-.2229-.6191-.3633-.9961-.4073 0-.2532-.044-.4843-.1293-.6989-.1926-.4926-.5971-.8558-1.109-.9989a1.9084 1.9084 0 0 0-.498-.0688c-.0853 0-.1706.0055-.2559.0165a1.9077 1.9077 0 0 0-.1128-.2394c-.2615-.4788-.6962-.8007-1.2246-.9136a1.7449 1.7449 0 0 0-.3384-.0357c-.5531 0-1.0099.2559-1.3951.6191-.399-.5063-.9411-.787-1.552-.8007h-.0358Z"></path>
    <path fill="#fff" d="M46.6697 78.302c.0192.1706.033.2751.033.2751s-.8998-1.7198-2.1106-.8475c-.121.0881-.2201.2697-.2394.5173-.0302-.3577.0853-.6191.2394-.7319 1.0732-.7733 1.9015.4898 2.0776.787ZM50.3818 75.3029c-.8117-.1706-1.9262 2.4986-1.9262 2.4986s.011-2.6664-1.1199-2.6857c-.5806-.011-.732.8971-.7402 1.7859-.0138-.9494.1128-2.0115.7402-1.9978 1.1309.0221 1.1199 2.6857 1.1199 2.6857s1.1145-2.6692 1.9262-2.4985c.3963.0825.5036.5063.4843 1.0098-.0192-.4045-.1486-.7237-.4843-.7952v-.0028ZM50.4177 78.2607c.0055-.0165.0798-.2119.1623-.4925.3385-.5449 1.131-1.6813 1.8051-1.4942.2505.0688.322.2972.2945.5889-.022-.1844-.1101-.322-.2945-.3743-.8695-.2449-1.9399 1.7143-1.9702 1.7721h.0028ZM54.2755 78.5606c-.0138-.0853-.0495-.154-.1073-.2008-.6577-.5256-2.2372.5613-2.2372.5613s.0798-.1321.1926-.3357c.4403-.2669 1.53-.853 2.0473-.4375.1018.0798.1321.2284.1073.4155l-.0027-.0028Z"></path>
    <path fill="#000" fill-opacity=".1" d="M45.2444 28.5098c-1.5107 2.3527-3.7754 3.591-5.0577 2.7682-1.2823-.8227 1.6125-1.6592 3.1205-4.012 1.5106-2.3527 1.0649-5.3328 2.3472-4.5073 1.2823.8228 1.0979 3.3984-.41 5.7511Z"></path>
  </g>
  <defs>
    <clipPath id="a">
      <path fill="#fff" d="M0 0h128v128H0z"></path>
    </clipPath>
  <clipPath id="SvgjsClipPath1059"><rect width="1000" height="1000" x="0" y="0" rx="0" ry="0"></rect></clipPath></defs>
</svg></svg></g></g></svg>