<?xml version="1.0" encoding="UTF-8"?>
<svg id="Layer_1" data-name="Layer 1" xmlns="http://www.w3.org/2000/svg" version="1.1" viewBox="0 0 551 483">
  <defs>
    <style>
      .cls-1 {
        fill: #a50000;
        stroke-width: 0px;
      }
    </style>
  </defs>
  <g id="_a50000ff" data-name="#a50000ff">
    <path class="cls-1" d="M252.8,38.2c6.5,6.3,13.8,12.1,17.6,20.6-20.7,4.8-26.4,0-46.7,6s-18,55.5-31.2,43.7c-36.4-32.3-50.6-17.2-51.1-27.1,4.5-12.8,72.3-81.4,111.4-43.2Z"/>
    <path class="cls-1" d="M264.1,40.8c-4.5-4.7.9-12.5,7.4-11.7,26.3,3.6,81.7,22.4,102.8,33.6,19.2,8.9,19.4,16,5.6,31.2-8.8,9.3-15.6,22.5-25.7,30.7s-8.6,1.5-10.3-2.5c-6.6-15.4-5.9-24.1-36.6-33.2s-29.7-1.5-31.6-5.1c-5.5-10.4,15.6-15.1-11.5-42.9Z"/>
    <path class="cls-1" d="M63.6,91.6c20.9-10.3,42.5-19.6,64.6-26.8,5.4,12.3.2,25.4-12.5,29.9-28.9,16.3-16.1,48.8,10.9,58.5,21.4,8.1,28,32.1,28,53-24.4-9.5-52.7-10.3-75.2-23.7-21-13.3-9.6-81-44.5-62.3,3.7-14,16.2-23,28.7-28.7Z"/>
    <path class="cls-1" d="M254.5,68.7c11.2-4.7,12.8,15.2,3.5,15.4-1.3-3-1.8-6.7-4.2-8.9-26.9,6.4-23.2,42.7-34.3,59.7-15.7-43-8.9-54.9,35.1-66.1Z"/>
    <path class="cls-1" d="M393.4,91.4c10.2-11.6,27.6-17.3,37.9-2.6,2.1,1.7.6,4.3-.3,6.2-19,39.2-57.4,68.6-99.6,78.6-3,.7-5.3-2.7-3.5-5.2,12-16.4,46.2-57.4,65.4-77Z"/>
    <path class="cls-1" d="M257.7,93.7c27.7-8.9,74.1,5.6,71.7,40.4-5.9,32.6-62.7,34.4-73.8,4.8,19.5,7.4,50.9,17,58.3-10.8,2.9-7.1,2.4-18.1-7.2-18.9-.9,8.2,3.9,19.5-7.8,21.6-11.7-75.5-58.1-7.1-12.8-19.1,6.3,17.6-18.1,27.1-30.8,18-13.9-8.1-14.8-31.3,2.3-36Z"/>
    <path class="cls-1" d="M133.3,95.3c24-4.5,51.9,7.8,59,32.3,1.2,3.6,4.6,5.6,7.6,7.5,31.8,17.5,68.9,24.3,100.1,42.8-10.3,4.7-25.3-.4-37.2,2.4-38.3,7.4-77.8.7-111.9-18.3-29.9-14.1-74.4-53.6-17.7-66.7Z"/>
    <path class="cls-1" d="M447.1,103.4h0c.1.2.2.3.3.5,8.6,12.1,19.1,23,31.5,31.2,8.9,5.9,28.6,10.4,7.3,14.4s-.8.2-1.1.3c-9.5,3-18.2,8.2-25.8,14.7s-.6.5-.9.7c-15.8,10.2-35.4,13.8-53.7,18.3-4.8,1.2-9.8-2.1-10.1-7.1-1.5-19,25.6-57.8,39.8-73.4,3.5-3.8,9.5-3.6,12.7.3Z"/>
    <path class="cls-1" d="M368.5,170.5c7.4-3,14.7-6.4,22.4-8.7.5,57.1-2,128.5-49.5,167.6-19.1,15.7-41.2,31.8-67.4,26.4-52.3-6.6-113.6-37.1-110.1-97.9-9.6-132.9-7.1-51.7,88.2-67.8,67-10.4,66,10.4,95.2,61-1.3-47.7-45.6-58.6,21.2-80.6Z"/>
    <path class="cls-1" d="M448.5,180.2c53.8-2.3,56.2,30.9,50.6,75s-.4,8.8.4,13.1,0,.3,0,.4c4.1,21.2-8.5,42.1-29.1,48.7-14.6,4.6-30.2,7.4-42.2,17.3s-2.3,1.7-3.5,2.5c-28.8,18.2-60.5,55.2-96.7,42.8-74.9-20.9,13.5-19,41.5-73.3,14.6-28.7,21.8-61.1,23.8-93.2,1.6-21.8,28.7-27.7,47.3-32.1s5.1-1,7.7-1.1Z"/>
    <path class="cls-1" d="M92.1,199.6c.8-.2,1.7-.2,2.5-.2,111,2.7,7.3,99.5,131.3,149.7,12.6,5.5,25.4,10.9,39.1,12.8h.2c11.1,1.6,12.8,17.1,2.2,20.9-3.4,1.2-6.9,2.1-9.5,2.7s-.5,0-.8.1c-44,6.6-83.8-18.8-126.6-22.6-.3,0-.6,0-.8-.1-11.8-2.2-25.6,3.7-36.9.5s-5.3-2.9-6.6-5.6c-21.5-43.3-62.1-143.6,6.1-158.1Z"/>
    <path class="cls-1" d="M445.1,334.8c7.7-1.4,6.6,10.4,5.9,16.4s-.2,1-.3,1.5c-15,55-111,58.3-150.9,95.1-30,27-42.6-12.2-66.9-22.6-.5-.2-1-.4-1.5-.5-26.8-6.8-55.3-6.1-81.2-16.8s-.9-.3-1.4-.4c-23.3-6-39.8-52.2-2.2-37.5.3.1.5.2.8.3,44.8,12.9,101.1,42.3,141.5,7.5,3.2-2.7,7.7-3.2,11.4-1.2,59.1,32.9,91.6-14.1,142.2-40.7s1.7-.8,2.6-1Z"/>
  </g>
</svg>