<?xml version="1.0" encoding="UTF-8"?>
<svg id="Layer_1" data-name="Layer 1" xmlns="http://www.w3.org/2000/svg" version="1.1" viewBox="0 0 512 512">
  <defs>
    <style>
      .cls-1 {
        fill: #0ea857;
      }

      .cls-1, .cls-2, .cls-3 {
        stroke-width: 0px;
      }

      .cls-2 {
        fill: #242945;
      }

      .cls-3 {
        fill: #f44b4d;
      }
    </style>
  </defs>
  <g id="_242945ff" data-name="#242945ff">
    <path class="cls-2" d="M248.4,45.9c21.7-8.6,44.5-14.2,67.8-16.1,2.4-.5,5.2.9,5.6,3.4.8,2.6-1.5,4.4-2.9,6.2-5.9,6.2-9.5,14.2-11.3,22.5,10.5-1.6,21.1-2.7,31.8-2.2,2.7,0,4.8,3.2,3.8,5.7-7.4,22.3-6.2,46.5-2.2,69.3,3.8,25.3,2.6,51.9-6.5,76.1-6,15.9-17,30.9-32.9,37.8-11.1,5-23.6,5.8-35.5,4.5,0,21.5,0,42.9,0,64.4,17.8-25.8,53.6-37.5,82.9-26,2.1,1.1,2.7,4,1.7,6-5.3,15-15.7,28-29.1,36.5-16.2,10.4-36.7,13.7-55.4,9.1,0,45.1.2,90.3-.1,135.4-.4,5.5-9.5,4.8-9.1-.7-.2-19.4,0-38.8,0-58.1-15.5,3.8-32.3,2.4-46.9-4.3-17.6-7.9-31.7-23.3-38-41.6-1-2.1,0-4.8,2-5.8,29.5-11.3,65.5.5,83,26.7-.3-47.3,0-94.7,0-142-22.5,1.5-46.6-.8-65.7-13.8-15.2-10-24.4-27.1-28.3-44.6-2.9-13.1-2.3-26.8,1.3-39.7,7.6-29.3,11.1-60.9,1.7-90.2-.4-2.7,2.2-5.1,4.8-4.9,8.8-.3,17.7.4,26.5,1.6-1.5-5-3.5-10-6.9-14-1.4-2.1-4.1-4.1-3.2-6.9,1.1-3.7,5.6-3.9,8.8-4.9,18.2-3.7,36.5,2.8,52.6,10.7M255.3,53.3c-6.5,2.8-13.1,5.6-18.5,10.3-2.4,2.1-5.3,4-6.2,7.2,7.9,3,14.9,7.6,22,12.1,13.8-9,29.2-15.5,45.2-19.2,1.1-8.2,4.1-16,8.1-23.2-17.3,2.2-34.4,6.4-50.6,12.9M199.5,44c4,5.5,6.6,12,7.5,18.7,4.5,1.3,9,2.6,13.5,3.7,4.2-6.5,10.4-11.4,17-15.5-11.9-5.4-25-7.9-38-7M176.7,68.6c7.5,29.8,3.6,61.2-4.3,90.6-5.5,21.1-.8,44.5,12.6,61.8,12.9,14.4,32.1,22.7,51.3,22.7-20.4-12.2-32.1-35.8-32.7-59.2,0-14,1.7-28,5.5-41.5,5.9-21,18.1-40.4,35.3-53.9-19.9-13.2-43.9-20-67.7-20.4M301.4,72.8c-26.1,5.7-51.5,19.1-67.6,40.9-13.7,18.3-19.6,41.4-20.6,63.9,0,6.6-.4,13.2,1.2,19.7,4.1,19.6,18.9,36.5,37.8,43,15.4,5.2,33.2,6.5,48.1-1.1,13.2-6.7,21.6-20,26.3-33.7,8.3-24.1,8.8-50.4,4.1-75.4-3.7-20.3-3.1-41.3,1.6-61.3-10.4.3-20.8,1.4-30.9,4M306.9,298.9c-17.4,5.1-32.6,18.1-39.4,35.1,9.1,2.1,18.7,2.6,27.9.6,19.7-3.8,37.1-17.9,45-36.4-10.9-2.7-22.6-2.7-33.4.6M182.2,375c5.5,12.5,15,23.1,27,29.7,13.9,7.8,30.7,9.8,46,5.9-6.3-14.6-18.4-26.6-33.1-32.7-12.5-5.3-26.7-6.3-39.9-2.9Z"/>
  </g>
  <g id="_f44b4dff" data-name="#f44b4dff">
    <path class="cls-3" d="M255.3,53.3c16.2-6.5,33.3-10.6,50.6-12.9-4,7.2-7,15-8.1,23.2-16.1,3.7-31.5,10.2-45.2,19.2-7.1-4.4-14.2-9.1-22-12.1.9-3.2,3.9-5.1,6.2-7.2,5.4-4.6,12-7.5,18.5-10.3Z"/>
    <path class="cls-3" d="M199.5,44c13-.9,26.1,1.6,38,7-6.5,4.1-12.7,8.9-17,15.5-4.5-1.1-9-2.4-13.5-3.7-.9-6.7-3.5-13.2-7.5-18.7Z"/>
    <path class="cls-3" d="M176.7,68.6c23.8.4,47.8,7.3,67.7,20.4-17.2,13.5-29.4,32.9-35.3,53.9-3.8,13.5-5.5,27.5-5.5,41.5.6,23.4,12.3,46.9,32.7,59.2-19.3,0-38.5-8.3-51.3-22.7-13.4-17.2-18-40.7-12.6-61.8,7.9-29.3,11.8-60.7,4.3-90.6Z"/>
    <path class="cls-3" d="M301.4,72.8c10.1-2.5,20.5-3.6,30.9-4-4.7,20-5.3,41-1.6,61.3,4.7,24.9,4.1,51.2-4.1,75.4-4.7,13.7-13.1,27-26.3,33.7-14.9,7.6-32.7,6.3-48.1,1.1-18.9-6.6-33.7-23.5-37.8-43-1.7-6.4-1.3-13.1-1.2-19.7,1-22.6,6.9-45.6,20.6-63.9,16.1-21.8,41.5-35.2,67.6-40.9Z"/>
  </g>
  <g id="_0ea857ff" data-name="#0ea857ff">
    <path class="cls-1" d="M306.9,298.9c10.8-3.3,22.5-3.3,33.4-.6-7.8,18.5-25.2,32.6-45,36.4-9.2,2-18.8,1.5-27.9-.6,6.8-16.9,22-30,39.4-35.1Z"/>
    <path class="cls-1" d="M182.2,375c13.1-3.4,27.4-2.4,39.9,2.9,14.7,6.1,26.9,18.1,33.1,32.7-15.4,3.9-32.2,1.9-46-5.9-12-6.5-21.5-17.2-27-29.7Z"/>
  </g>
</svg>